<?xml version="1.0" standalone="no"?>
<!DOCTYPE svg PUBLIC "-//W3C//DTD SVG 20010904//EN"
 "http://www.w3.org/TR/2001/REC-SVG-20010904/DTD/svg10.dtd">
<svg version="1.0" xmlns="http://www.w3.org/2000/svg"
 width="522.000000pt" height="522.000000pt" viewBox="0 0 522.000000 522.000000"
 preserveAspectRatio="xMidYMid meet">
<metadata>
Created by potrace 1.14, written by Peter Selinger 2001-2017
</metadata>
<g transform="translate(0.000000,522.000000) scale(0.100000,-0.100000)"
fill="#000000" stroke="none">
<path d="M4610 5044 c-177 -15 -677 -82 -711 -95 -61 -24 -77 -55 -186 -375
-57 -170 -107 -319 -110 -331 -3 -13 -8 -23 -12 -23 -3 0 -46 91 -95 203 -118
267 -203 435 -228 448 -26 14 -186 7 -333 -15 -60 -9 -144 -21 -185 -27 -41
-6 -131 -17 -200 -24 -69 -7 -210 -25 -315 -39 -104 -14 -251 -33 -325 -41
-325 -38 -422 -59 -473 -105 l-32 -28 0 -347 c0 -252 3 -348 12 -353 13 -8 15
-59 33 -907 10 -481 8 -825 -6 -825 -2 0 -71 66 -154 148 -83 81 -165 153
-183 161 -66 27 -288 -15 -417 -79 -214 -107 -381 -339 -425 -587 -20 -115
-19 -168 4 -294 45 -242 152 -462 348 -717 43 -56 103 -135 133 -177 60 -84
142 -162 265 -250 129 -92 223 -132 405 -171 105 -23 360 -26 465 -6 195 37
410 124 532 215 l63 47 6 -28 c10 -48 13 -52 36 -52 55 1 770 86 800 96 19 6
42 39 52 74 10 34 68 171 132 310 29 63 56 127 59 143 4 15 11 27 15 27 14 0
52 -67 160 -284 117 -234 114 -231 206 -215 27 5 105 16 174 24 69 9 141 20
160 25 19 4 60 11 90 15 75 8 270 35 297 41 30 6 47 33 92 151 58 149 106 262
135 323 15 30 36 77 47 103 18 45 18 50 3 85 -9 20 -44 105 -79 187 -66 157
-162 380 -195 452 -11 24 -20 45 -20 48 0 6 -143 329 -200 450 -59 126 -129
308 -136 353 -4 28 -1 49 14 78 11 21 42 104 70 184 27 80 70 201 95 270 25
69 48 139 51 155 4 17 31 107 61 200 30 94 63 202 74 240 25 92 116 395 152
507 40 123 39 148 -9 173 -33 18 -37 25 -34 54 1 19 17 68 34 110 23 55 31 93
32 138 1 61 0 64 -45 108 -41 42 -50 46 -100 49 -30 2 -74 2 -99 0z m57 -151
c-9 -32 -49 -126 -98 -233 -26 -58 -54 -127 -62 -155 -27 -88 -58 -170 -69
-180 -7 -7 -8 1 -3 25 4 19 9 50 10 68 2 18 9 40 16 49 10 12 11 15 1 9 -9 -6
-9 0 2 26 25 60 35 99 24 92 -6 -4 -6 1 1 13 6 11 7 24 3 28 -4 5 -2 5 5 1 6
-3 14 1 17 11 7 26 17 140 10 127 -3 -7 -14 -10 -25 -7 -10 3 -27 -1 -36 -8
-10 -8 -14 -9 -10 -2 11 17 -35 12 -49 -6 -6 -8 -14 -10 -17 -5 -11 19 -346
-19 -352 -40 -20 -70 -80 -253 -86 -262 -9 -11 -40 -128 -42 -156 -1 -9 -5
-14 -10 -11 -4 2 -5 -8 -1 -23 5 -19 4 -25 -5 -20 -7 5 -11 -2 -11 -18 0 -13
-5 -26 -10 -28 -6 -2 -12 -15 -14 -29 -1 -13 -6 -31 -11 -39 -5 -8 -10 -19
-11 -25 -1 -5 -14 -45 -28 -88 -14 -43 -30 -95 -35 -115 -5 -20 -21 -68 -35
-107 -15 -38 -40 -110 -57 -160 -35 -107 -57 -155 -69 -155 -13 0 -29 32 -47
93 -8 29 -49 131 -90 227 -41 96 -85 202 -99 235 -14 33 -29 69 -34 80 -5 11
-21 49 -36 85 -14 36 -61 137 -103 225 -43 88 -80 168 -84 178 -7 19 -36 21
-137 8 -109 -15 -231 -29 -305 -36 -38 -4 -74 -10 -79 -15 -9 -9 16 -93 49
-160 12 -25 28 -67 35 -95 7 -27 17 -54 21 -60 5 -5 9 -15 9 -23 0 -21 -33 25
-50 68 -33 85 -141 299 -166 329 -19 23 -24 35 -16 40 7 4 67 13 135 20 130
13 330 38 412 52 28 4 73 8 100 8 l50 1 46 -98 c26 -53 61 -128 77 -167 215
-494 271 -626 283 -657 7 -21 16 -38 20 -38 9 0 49 108 49 134 0 20 23 101 65
231 9 28 25 79 37 115 11 36 26 79 33 95 7 17 16 46 20 65 3 19 22 76 40 125
18 50 48 133 67 185 l33 95 80 12 c44 6 123 17 175 23 52 6 165 21 250 34 200
31 224 31 217 9z m-2366 -275 c1 -2 5 -241 9 -533 4 -291 16 -672 25 -845 10
-173 16 -327 12 -341 -7 -27 -66 -114 -72 -107 -3 2 0 22 6 43 8 29 8 82 0
190 -6 82 -13 359 -17 615 -3 256 -12 548 -19 648 -8 101 -11 190 -8 198 9 24
-21 26 -133 9 -60 -9 -152 -23 -204 -30 -52 -7 -131 -19 -174 -26 l-79 -13 7
-135 c3 -74 10 -139 16 -146 14 -17 -13 -16 -76 1 l-52 15 -7 142 c-4 78 -5
160 -3 182 4 46 -5 43 203 71 72 9 204 27 295 39 146 20 268 30 271 23z m1933
-915 c-36 -104 -70 -204 -76 -223 -5 -19 -25 -85 -44 -146 -19 -61 -39 -137
-45 -170 -6 -32 -14 -63 -19 -69 -26 -35 -13 -113 40 -230 12 -27 51 -123 90
-219 43 -106 166 -387 224 -510 26 -54 79 -171 117 -260 39 -88 74 -170 79
-181 84 -192 140 -325 145 -343 5 -19 1 -25 -27 -36 -34 -14 -321 -60 -520
-82 l-57 -7 -65 131 c-36 72 -74 153 -85 179 -11 27 -49 116 -86 198 -36 83
-74 168 -83 190 -9 22 -20 45 -24 50 -4 6 -29 42 -55 80 -25 39 -50 72 -55 73
-4 2 -6 8 -2 13 3 5 1 9 -4 9 -5 0 -12 -9 -15 -21 -3 -12 -10 -18 -15 -15 -13
8 -62 -46 -67 -74 -9 -46 -28 -97 -75 -195 -55 -117 -85 -191 -104 -260 -24
-84 -162 -442 -178 -463 -6 -6 -30 -12 -55 -12 -82 0 -541 -56 -579 -71 -49
-18 -57 -13 -50 32 4 23 15 63 25 88 18 43 63 163 118 311 13 36 33 86 44 113
10 26 29 71 40 100 12 28 25 61 30 72 8 20 50 128 120 315 22 57 44 109 48
115 5 5 12 26 16 45 4 19 14 48 21 65 7 16 22 55 33 85 11 30 38 102 60 160
22 58 52 137 67 175 14 39 42 103 61 144 38 81 39 111 2 183 -10 20 -19 43
-19 49 0 7 -11 35 -24 63 -129 275 -142 304 -118 282 15 -15 137 -249 211
-406 17 -36 40 -76 51 -90 l20 -25 -31 -95 c-44 -136 -139 -410 -154 -445 -38
-90 -65 -168 -65 -190 0 -14 -4 -25 -10 -25 -5 0 -10 -5 -10 -11 0 -13 -45
-133 -67 -176 -24 -48 -25 -111 -1 -124 10 -5 18 -6 17 -2 -4 21 3 33 22 44
15 7 19 8 15 0 -5 -7 -1 -8 10 -4 13 5 15 3 9 -8 -7 -11 -5 -11 10 1 11 8 27
22 35 30 8 9 12 11 8 5 -8 -12 -1 -25 14 -25 5 0 7 4 3 9 -3 5 -1 13 5 16 6 4
9 3 8 -2 -2 -4 2 -8 7 -8 6 0 9 4 7 10 -2 5 6 1 17 -9 18 -16 23 -17 37 -5 16
13 16 12 6 -8 -8 -15 -9 -24 -2 -28 6 -4 9 -1 8 6 -2 7 2 13 9 14 7 0 19 9 27
20 10 14 14 15 13 5 -1 -8 2 -16 7 -17 5 -1 13 -7 18 -15 8 -10 9 -10 5 2 -2
8 -10 14 -16 12 -16 -3 -14 3 6 19 9 8 14 9 10 3 -10 -17 20 -25 33 -9 7 8 9
20 5 27 -4 7 0 5 8 -5 14 -16 53 -14 42 2 -2 4 2 8 10 8 18 0 19 -9 3 -27 -7
-8 -4 -7 8 3 24 20 38 22 29 5 -4 -7 2 -3 13 9 11 12 22 20 25 17 8 -9 95 172
118 245 25 83 44 103 52 54 0 -5 11 -19 24 -33 13 -14 23 -32 23 -40 0 -8 16
-31 35 -51 19 -20 31 -39 28 -43 -4 -3 -2 -6 3 -6 9 0 11 -7 15 -65 1 -14 8
-25 16 -25 8 0 12 4 9 9 -4 5 1 8 9 7 18 -3 32 -16 17 -16 -7 0 -12 -5 -12
-11 0 -8 5 -8 15 1 8 7 15 10 15 6 0 -3 11 -1 25 4 14 5 24 6 24 2 -4 -26 1
-34 16 -22 11 9 15 9 15 1 0 -7 5 -9 10 -6 6 4 7 12 3 18 -4 7 1 6 10 -2 15
-12 17 -12 12 2 -4 8 -2 18 3 21 5 3 12 -3 15 -14 7 -29 30 -25 25 4 -3 16 0
23 8 22 22 -3 29 -17 14 -26 -11 -7 -11 -10 -2 -10 7 0 17 10 22 23 7 17 9 18
9 5 1 -19 21 -26 21 -7 0 5 5 7 10 4 6 -3 10 -2 10 2 0 5 20 8 44 8 38 0 43
-2 33 -15 -9 -12 -9 -13 3 -3 9 9 17 9 26 2 15 -12 29 5 18 22 -5 8 -9 8 -14
-1 -5 -8 -9 -8 -13 3 -5 13 9 16 33 7 3 -1 8 -2 12 -1 4 0 5 -5 2 -13 -6 -15
53 -29 62 -14 3 4 1 8 -4 8 -5 0 -9 10 -8 23 3 34 -60 197 -76 197 -4 0 -8 4
-8 10 0 12 -97 241 -148 350 -67 144 -122 285 -133 340 -11 52 -9 60 26 155
21 55 46 123 56 150 10 28 29 82 44 120 14 39 37 104 51 145 14 41 32 89 39
105 30 66 65 159 65 174 0 16 56 121 65 121 2 0 -25 -84 -61 -187z m-2541
-220 c4 -214 11 -480 17 -593 5 -113 14 -344 19 -513 5 -170 12 -311 15 -314
3 -3 12 0 20 6 12 10 13 8 9 -10 -4 -14 -2 -20 5 -16 5 4 13 1 16 -5 3 -7 5
-1 3 14 -3 20 0 25 11 20 11 -4 13 -2 7 9 -8 12 -6 12 8 0 15 -12 17 -12 11 4
-5 13 -4 16 4 11 7 -4 12 -2 12 4 0 6 5 8 10 5 6 -3 10 -2 10 4 0 5 -3 11 -7
14 -5 2 -3 3 3 1 12 -2 37 33 30 45 -3 4 1 8 8 8 8 0 11 -9 8 -25 -3 -17 -1
-23 7 -18 6 4 8 13 4 19 -3 7 3 3 15 -7 18 -16 20 -22 10 -35 -12 -15 -11 -15
7 0 22 17 33 18 55 5 12 -7 13 -6 3 5 -18 18 -16 25 8 26 16 2 19 -2 14 -15
-5 -14 -4 -15 6 -4 11 10 10 15 -4 29 -14 14 -17 15 -17 3 0 -13 -1 -13 -10 0
-7 12 -11 10 -19 -10 -6 -17 -10 -19 -10 -8 -1 18 16 33 39 33 8 0 22 4 30 10
13 8 13 7 1 -8 -13 -16 -2 -25 13 -10 4 5 13 8 19 8 7 1 11 7 9 14 -1 7 2 10
8 6 6 -3 8 -10 5 -15 -7 -12 21 -20 34 -9 6 5 9 6 6 3 -2 -4 6 -15 19 -25 27
-21 41 -25 30 -7 -4 7 -3 8 4 4 16 -10 15 -39 0 -30 -7 4 -10 3 -5 -1 4 -5 0
-16 -8 -25 -13 -14 -13 -17 0 -17 8 0 12 4 9 8 -2 4 1 11 7 14 6 4 14 17 19
29 9 20 9 20 9 0 1 -11 -4 -25 -11 -32 -9 -9 -9 -12 0 -12 7 0 12 5 12 11 0 5
5 7 12 3 7 -4 8 -3 4 4 -4 7 -3 12 3 12 5 0 12 -6 14 -12 4 -8 6 -6 7 5 4 27
5 31 13 45 5 7 3 12 -4 12 -7 0 -9 10 -7 25 3 14 2 25 -3 25 -4 0 -6 9 -4 20
2 11 -1 22 -6 26 -6 4 -7 10 0 17 5 7 8 38 7 70 -1 31 1 57 5 57 9 0 3 80 -10
113 -7 19 -7 27 0 27 6 0 18 9 27 20 10 11 36 22 58 26 l42 6 7 -377 c8 -418
3 -560 -24 -650 -10 -33 -28 -94 -41 -135 -79 -263 -297 -484 -561 -571 -83
-27 -233 -49 -338 -49 -367 0 -696 208 -895 564 -33 57 -69 116 -82 131 -85
99 -38 435 83 587 82 102 235 197 388 239 l79 21 23 -28 c13 -16 45 -60 72
-99 26 -38 69 -100 94 -136 26 -37 47 -72 47 -79 0 -7 -12 -26 -27 -44 -65
-78 -99 -203 -72 -273 24 -65 152 -153 222 -153 45 0 140 55 189 108 79 88 97
185 79 427 -6 83 -16 382 -21 665 -6 283 -17 623 -25 755 -21 336 -21 333 13
340 15 4 38 13 52 20 14 8 28 15 31 15 3 0 9 -174 12 -387z m904 -277 c47
-127 225 -481 292 -581 28 -42 51 -81 51 -86 0 -10 -149 -387 -175 -443 -8
-17 -28 -69 -46 -116 -58 -156 -68 -183 -73 -187 -9 -9 -15 58 -36 387 -11
179 -32 496 -45 705 -13 209 -26 398 -29 420 -4 36 -3 38 9 21 8 -11 31 -65
52 -120z m-342 -905 c3 -5 2 -12 -3 -15 -5 -3 -9 1 -9 9 0 17 3 19 12 6z
m-286 -165 c-3 -3 -11 5 -18 17 -13 21 -12 21 5 5 10 -10 16 -20 13 -22z
m1676 -67 c-10 -15 -25 -10 -19 6 4 8 10 12 15 9 5 -3 7 -10 4 -15z m535 -45
c0 -8 -19 -13 -24 -6 -3 5 1 9 9 9 8 0 15 -2 15 -3z m-825 -103 c3 -5 2 -12
-3 -15 -5 -3 -9 1 -9 9 0 17 3 19 12 6z m-250 -13 c4 -3 2 -9 -3 -12 -5 -3
-15 1 -21 8 -10 11 -9 14 3 12 9 -1 18 -5 21 -8z m1502 -1102 c-4 -12 -77 -32
-150 -40 l-52 -7 34 16 c18 8 43 15 56 15 12 0 28 7 35 15 13 16 83 18 77 1z
m-554 -71 c15 -8 26 -11 23 -7 -2 4 6 8 17 9 121 11 150 12 138 4 -29 -18
-241 -46 -241 -32 0 4 5 23 12 41 9 26 13 30 17 17 4 -10 19 -24 34 -32z
m-2986 -132 c23 -11 39 -23 36 -27 -4 -4 0 -4 9 -1 11 4 21 -1 30 -14 7 -12
19 -21 26 -21 7 0 20 -4 30 -9 59 -32 99 -47 110 -44 6 3 12 -1 12 -7 0 -7 8
-10 20 -7 10 3 21 0 22 -5 2 -6 17 -12 33 -13 17 -2 39 -6 51 -8 11 -3 41 -6
65 -8 24 -1 50 -7 58 -13 9 -7 16 -6 25 6 11 15 13 15 24 -3 7 -10 18 -19 25
-19 9 0 8 3 -2 9 -8 6 -9 11 -3 15 6 4 20 -4 32 -16 12 -13 20 -17 18 -9 -2 7
5 15 15 16 9 2 17 -2 17 -8 0 -8 3 -8 8 -2 10 14 32 17 32 4 0 -5 4 -8 9 -4 5
3 13 0 17 -6 5 -9 11 -6 22 7 13 18 14 17 8 -11 -7 -28 -6 -29 7 -10 9 11 13
24 9 30 -3 5 1 5 9 -2 17 -14 30 -14 47 -1 7 6 15 8 19 4 3 -3 1 -6 -6 -6 -7
0 -9 -5 -6 -10 5 -8 11 -7 21 1 12 10 15 10 12 -2 -2 -10 7 -14 37 -12 36 2
37 1 15 -8 -14 -6 -72 -19 -130 -30 -238 -43 -493 -9 -651 86 -73 45 -113 78
-179 149 -47 50 -51 57 -25 44 17 -8 49 -24 72 -35z m1854 25 c16 0 29 -3 29
-7 0 -5 43 -8 94 -7 52 0 92 -2 88 -6 -4 -4 -55 -12 -112 -18 -58 -5 -150 -16
-205 -25 -55 -8 -128 -15 -162 -15 l-62 0 6 33 c7 37 13 48 13 24 0 -19 30
-23 31 -4 0 7 2 8 5 1 5 -12 68 -5 140 15 49 14 86 18 98 13 5 -3 22 -5 37 -4z
m-637 -108 c-42 -31 -54 -36 -54 -20 0 6 6 10 14 10 8 0 24 9 37 20 13 10 28
19 33 20 5 0 -8 -13 -30 -30z m-98 -55 c-11 -8 -27 -15 -35 -15 -9 1 -2 7 14
15 39 18 44 18 21 0z m-96 -40 c-14 -8 -32 -14 -40 -14 -8 0 -1 7 15 14 39 18
57 18 25 0z"/>
<path d="M3489 1913 c-13 -16 -12 -17 4 -4 16 13 21 21 13 21 -2 0 -10 -8 -17
-17z"/>
<path d="M3190 1896 c0 -2 8 -10 18 -17 15 -13 16 -12 3 4 -13 16 -21 21 -21
13z"/>
<path d="M2273 2282 c-9 -15 -8 -19 3 -19 8 0 14 9 14 19 0 10 -1 18 -3 18 -1
0 -7 -8 -14 -18z"/>
<path d="M940 2233 c-48 -17 -180 -88 -203 -109 -14 -13 -29 -24 -32 -24 -11
0 -75 -67 -75 -78 0 -6 -8 -15 -17 -21 -15 -8 -16 -13 -6 -30 11 -17 10 -19
-1 -15 -10 4 -13 0 -11 -13 1 -10 -5 -27 -14 -37 -9 -11 -10 -16 -3 -12 6 4
12 3 12 -1 0 -5 6 -17 13 -26 11 -16 12 -15 12 7 0 13 -3 22 -7 20 -4 -2 -9 0
-12 5 -4 5 2 8 11 6 10 -1 25 3 33 11 10 9 20 10 30 4 9 -6 10 -10 3 -10 -6 0
-9 -9 -6 -21 6 -20 7 -20 19 7 l14 29 -4 -38 c-2 -21 -1 -35 3 -32 3 4 7 11 7
16 1 5 2 11 3 14 0 3 11 0 24 -7 12 -7 26 -11 31 -10 5 2 5 -5 2 -15 -6 -14
-5 -15 5 -6 10 10 9 15 -1 27 -7 9 -17 13 -22 10 -6 -4 -5 3 1 15 14 25 23 28
14 4 -6 -15 -4 -16 9 -6 13 11 15 8 14 -26 -1 -22 2 -37 6 -35 5 3 8 17 8 32
0 20 3 23 9 12 6 -8 8 -17 5 -21 -2 -4 4 -6 13 -4 29 4 35 -5 18 -31 -8 -13
-13 -24 -10 -24 2 0 0 -11 -5 -25 -5 -14 -5 -27 0 -30 5 -3 5 -19 -1 -37 -5
-17 -6 -34 -4 -37 3 -2 5 0 5 6 0 5 7 10 15 10 14 0 20 -11 15 -32 -1 -5 2 -7
6 -2 11 10 13 47 2 41 -15 -9 -8 3 9 17 14 12 16 12 8 0 -6 -11 -4 -13 7 -8
13 4 16 -2 14 -33 -1 -39 14 -41 17 -2 1 14 5 18 12 12 7 -6 16 -5 24 3 7 6
12 8 11 2 -5 -24 2 -27 23 -9 12 10 19 15 15 10 -9 -11 9 -36 26 -36 7 0 11
27 11 78 0 66 4 83 27 122 15 25 41 59 58 75 16 16 30 33 30 38 0 5 -25 37
-56 70 -30 34 -72 88 -92 119 -20 31 -41 63 -47 71 -5 8 -17 12 -25 10z m-200
-323 c-11 -21 -30 -19 -30 3 0 8 3 8 9 -1 7 -11 9 -11 14 2 4 9 9 16 12 16 3
0 1 -9 -5 -20z m122 -26 c-3 -19 -1 -25 7 -20 7 4 10 2 9 -5 -2 -6 2 -13 9
-16 8 -3 11 3 8 16 -2 11 4 26 13 33 13 11 14 11 7 -2 -5 -8 -10 -30 -12 -49
-3 -32 -29 -64 -46 -54 -4 2 -6 -7 -3 -21 3 -15 1 -24 -3 -21 -11 6 -8 56 6
79 8 14 8 25 0 37 -5 9 -7 24 -4 33 10 25 15 19 9 -10z m-25 -9 c0 -8 -4 -12
-9 -9 -5 3 -6 10 -3 15 9 13 12 11 12 -6z m22 -162 c-7 -10 -14 -20 -16 -22
-1 -2 -1 6 0 18 1 11 8 21 15 21 12 0 12 -3 1 -17z"/>
<path d="M870 1827 c0 -9 -5 -17 -11 -17 -5 0 -7 -5 -4 -10 4 -6 12 -4 22 6
12 11 13 18 4 27 -8 8 -11 7 -11 -6z"/>
<path d="M2067 2164 c-4 -4 -7 -14 -7 -23 0 -11 3 -12 11 -4 6 6 10 16 7 23
-2 6 -7 8 -11 4z"/>
<path d="M2104 2156 c11 -9 16 -16 11 -16 -4 0 0 -9 10 -20 17 -19 41 -18 30
1 -4 5 -1 9 6 9 6 0 9 -8 6 -20 -3 -11 -1 -18 4 -14 24 15 0 51 -40 59 -12 2
-27 7 -34 10 -6 4 -3 -1 7 -9z m42 -32 c2 -12 -1 -13 -12 -3 -7 6 -11 16 -8
21 7 11 17 3 20 -18z"/>
<path d="M1886 2124 c-4 -9 -4 -19 -1 -22 3 -3 5 0 5 6 0 7 5 12 11 12 5 0 7
-5 4 -10 -8 -13 18 -8 27 5 13 17 9 28 -5 16 -9 -7 -17 -7 -24 0 -7 7 -12 5
-17 -7z"/>
<path d="M2246 2065 c4 -8 8 -15 10 -15 2 0 4 7 4 15 0 8 -4 15 -10 15 -5 0
-7 -7 -4 -15z"/>
<path d="M643 1908 c-18 -24 -25 -43 -7 -23 16 20 16 20 11 -3 -3 -12 -1 -20
4 -17 5 4 8 17 7 30 -3 29 -3 29 -15 13z"/>
<path d="M726 1860 c5 -8 9 -18 9 -22 0 -3 3 -9 7 -13 3 -4 5 0 4 9 -1 9 -8
22 -16 29 -10 10 -11 9 -4 -3z"/>
<path d="M809 1835 c-1 -3 -2 -14 -3 -24 -2 -29 -16 -38 -17 -10 0 13 -3 18
-6 11 -3 -7 0 -26 5 -42 11 -30 -5 -58 -24 -42 -5 4 2 -5 15 -20 25 -29 32
-33 30 -20 -1 4 0 9 1 12 4 7 6 140 3 140 -2 0 -4 -2 -4 -5z m1 -114 c0 -6 -4
-13 -10 -16 -5 -3 -10 1 -10 9 0 9 5 16 10 16 6 0 10 -4 10 -9z"/>
<path d="M702 1784 c20 -21 25 -33 17 -41 -8 -8 -7 -13 3 -18 7 -5 10 -5 6 0
-4 4 -2 15 4 23 16 19 21 49 5 33 -8 -8 -18 -5 -36 12 -24 20 -24 20 1 -9z"/>
<path d="M716 1798 c3 -5 10 -6 15 -3 13 9 11 12 -6 12 -8 0 -12 -4 -9 -9z"/>
<path d="M763 1772 c2 -12 6 -24 10 -28 3 -4 4 4 2 16 -6 30 -16 40 -12 12z"/>
<path d="M888 1667 c-3 -19 -2 -25 4 -19 6 6 8 18 6 28 -3 14 -5 12 -10 -9z"/>
<path d="M933 1654 c0 -8 3 -12 5 -9 3 3 11 0 18 -6 9 -7 12 -6 10 7 -3 21
-33 28 -33 8z"/>
<path d="M987 1663 c-3 -5 -2 -15 2 -22 7 -10 10 -10 16 -1 4 6 3 16 -3 22 -5
5 -12 6 -15 1z"/>
<path d="M2669 2643 c-3 -21 3 -212 7 -235 8 -40 18 -35 42 25 38 94 38 102
-4 162 -38 56 -43 61 -45 48z"/>
<path d="M1847 393 c3 -7 8 -13 12 -13 4 0 8 6 8 13 0 8 -6 14 -13 14 -7 0
-10 -6 -7 -14z"/>
<path d="M1883 395 c0 -8 9 -15 19 -15 10 0 18 5 18 12 0 6 -3 8 -7 5 -3 -4
-11 -2 -18 3 -8 7 -12 5 -12 -5z"/>
</g>
</svg>
